<svg width="327" height="44" viewBox="0 0 327 44" fill="none" xmlns="http://www.w3.org/2000/svg">
<g clip-path="url(#clip0_441_3050)">
<path d="M33.3392 21.5322H41.1052V37.8084C38.7317 39.5274 36.0371 40.8297 33.155 41.6507C30.1354 42.5506 26.981 43.0051 23.8082 42.9976C19.5644 43.0543 15.3735 42.123 11.622 40.2896C8.08059 38.5625 5.12277 35.9676 3.07323 32.7895C0.991589 29.5237 -0.0708282 25.7893 0.00366487 22.0001C-0.0684282 18.2111 0.99382 14.4773 3.07323 11.2107C5.13051 8.02827 8.09953 5.43276 11.6527 3.71056C15.4366 1.87529 19.6577 0.944328 23.9309 1.00257C27.3833 0.960819 30.812 1.53364 34.0298 2.68975C36.9815 3.75151 39.6135 5.45345 41.7037 7.65202L36.5008 12.3166C34.9211 10.8127 33.0252 9.6231 30.9295 8.82094C28.8339 8.01879 26.5828 7.621 24.3146 7.65202C21.4273 7.60015 18.5722 8.21931 16.0115 9.45261C13.6427 10.6215 11.6755 12.3798 10.3328 14.5283C8.93858 16.805 8.22853 19.3847 8.27615 22.0001C8.23603 24.5742 8.9464 27.1109 10.3328 29.3442C11.673 31.509 13.6393 33.2862 16.0115 34.4766C18.5376 35.7476 21.3771 36.3923 24.2532 36.3481C27.4308 36.4145 30.5692 35.6897 33.3392 34.2498V21.5322Z" fill="white"/>
<path d="M145.406 42V14.8233L131.258 37.3163H127.624L113.476 15.1792V42H105.863V1H112.444L129.538 28.1767L146.333 1H152.914V42H145.406Z" fill="white"/>
<path d="M194.64 32.5045H172.966L168.692 42H160.398L179.965 1H187.882L207.449 42H199.035L194.64 32.5045ZM191.976 26.4826L183.833 8.61632L175.691 26.4826H191.976Z" fill="white"/>
<path d="M246.099 21.5322H253.871V37.8086C251.49 39.5277 248.788 40.83 245.9 41.6508C242.878 42.5528 239.721 43.0074 236.546 42.9977C232.299 43.0526 228.106 42.1214 224.351 40.2897C220.835 38.5522 217.902 35.9581 215.872 32.7895C213.789 29.5237 212.726 25.7893 212.801 22C212.728 18.211 213.791 14.4772 215.872 11.2106C217.923 8.03198 220.883 5.43682 224.427 3.71038C228.215 1.87736 232.439 0.946532 236.715 1.00237C240.169 0.963438 243.6 1.53617 246.821 2.68956C249.771 3.75767 252.404 5.45865 254.501 7.65187L249.309 12.3164C247.729 10.8119 245.832 9.62185 243.734 8.81963C241.637 8.01742 239.384 7.62001 237.114 7.65187C234.225 7.60001 231.367 8.21917 228.805 9.45248C226.434 10.6214 224.466 12.3797 223.122 14.5282C221.727 16.805 221.016 19.3846 221.064 22C221.024 24.5742 221.735 27.111 223.122 29.3443C224.463 31.5091 226.431 33.2863 228.805 34.4767C231.333 35.7477 234.174 36.3924 237.053 36.3482C240.237 36.4129 243.382 35.6883 246.161 34.2499L246.099 21.5322Z" fill="white"/>
<path d="M265.193 1H272.679V42H265.193V1Z" fill="white"/>
<path d="M296.886 40.2902C293.423 38.5529 290.537 35.9584 288.542 32.7898C286.501 29.5189 285.454 25.7879 285.513 22.0001C285.442 18.211 286.49 14.4771 288.542 11.2103C290.569 8.03577 293.486 5.44179 296.977 3.70993C300.638 1.88465 304.732 0.95325 308.88 1.00185C312.233 0.962327 315.56 1.55543 318.663 2.7458C321.542 3.87355 324.103 5.61101 326.144 7.82167L320.904 12.4296C319.445 10.8949 317.649 9.67343 315.639 8.84875C313.629 8.02408 311.453 7.61569 309.259 7.65153C306.453 7.6043 303.682 8.23939 301.217 9.49472C298.896 10.6768 296.975 12.4453 295.675 14.5989C294.318 16.8559 293.628 19.4106 293.676 22.0001C293.628 24.5896 294.318 27.1442 295.675 29.4012C296.975 31.5549 298.896 33.3234 301.217 34.5054C303.682 35.7608 306.453 36.3958 309.259 36.3486C311.458 36.3831 313.64 35.9684 315.651 35.1334C317.662 34.2985 319.455 33.0633 320.904 31.5138L326.144 36.1785C324.078 38.4002 321.485 40.1385 318.572 41.2543C315.458 42.4432 312.122 43.0362 308.759 42.9983C304.621 43.0421 300.539 42.1109 296.886 40.2902Z" fill="white"/>
<path d="M64.4431 14.6843C71.6032 7.79144 79.9089 3.94596 85.5466 3.88792C81.0697 0.950961 75.6683 -0.389428 70.2744 0.0980661C64.8806 0.58556 59.8327 2.87035 56.0019 6.55816C52.1711 10.246 49.7977 15.1054 49.2913 20.2979C48.7849 25.4904 50.1773 30.6902 53.2281 35C53.2884 29.6018 57.283 21.6061 64.4431 14.6843Z" fill="white"/>
<path d="M92.2012 9C92.2012 14.3546 88.1464 22.3503 80.9863 29.3157C73.8262 36.2811 65.5355 40.054 59.8828 40.1121C64.3597 43.049 69.7611 44.3894 75.155 43.9019C80.5488 43.4144 85.5967 41.1296 89.4275 37.4418C93.2583 33.754 95.6317 28.8946 96.1381 23.7021C96.6444 18.5096 95.2521 13.3098 92.2012 9Z" fill="white"/>
</g>
<defs>
<clipPath id="clip0_441_3050">
<rect width="326.145" height="44" fill="white"/>
</clipPath>
</defs>
</svg>
