<svg width="45" height="45" viewBox="0 0 45 45" fill="none" xmlns="http://www.w3.org/2000/svg">
<path d="M14.6843 14.6843C21.5771 7.79144 29.5728 3.94596 35 3.88792C30.6902 0.950961 25.4904 -0.389428 20.2979 0.0980661C15.1054 0.58556 10.246 2.87035 6.55816 6.55816C2.87035 10.246 0.58556 15.1054 0.0980662 20.2979C-0.389428 25.4904 0.950959 30.6902 3.88792 35C3.94596 29.6018 7.79144 21.6061 14.6843 14.6843Z" fill="#101010"/>
<path d="M41.1121 10C41.1121 15.3546 37.2086 23.3503 30.3157 30.3157C23.4229 37.2811 15.4417 41.054 10 41.1121C14.3098 44.049 19.5096 45.3894 24.7021 44.9019C29.8946 44.4144 34.754 42.1296 38.4418 38.4418C42.1296 34.754 44.4144 29.8946 44.9019 24.7021C45.3894 19.5096 44.049 14.3098 41.1121 10Z" fill="#101010"/>
</svg>
