<svg width="715" height="106" viewBox="0 0 715 106" fill="none" xmlns="http://www.w3.org/2000/svg">
<path d="M73.9486 49.9085H75.9486H92.7083H94.7083V51.9085V89.8864V90.8605L93.9413 91.461C88.6301 95.6201 82.6008 98.7714 76.1523 100.759C69.445 102.919 62.4391 104.011 55.392 103.994C45.9047 104.129 36.5358 101.876 28.1483 97.4448C20.1809 93.2438 13.5261 86.9313 8.91462 79.1999L8.90937 79.1911C4.23547 71.2629 1.84695 62.1985 2.0076 52.9996C1.85233 43.802 4.24027 34.7398 8.9088 26.8102L8.91567 26.7985L8.91571 26.7986C13.5446 19.0567 20.2247 12.7428 28.2186 8.5534L73.9486 49.9085ZM73.9486 49.9085V51.9085M73.9486 49.9085V51.9085M73.9486 51.9085V80.3914C68.5387 83.2081 62.4977 84.6174 56.3856 84.4794L56.3464 84.4786L56.3072 84.4792C50.4453 84.5767 44.6581 83.1558 39.5097 80.3552L39.5078 80.3542C34.7148 77.7536 30.7421 73.8713 28.0345 69.1427L28.0334 69.1407C25.2203 64.2411 23.779 58.6761 23.8604 53.029L23.8608 52.9977L23.8603 52.9665C23.7636 47.2238 25.2048 41.5595 28.0348 36.5594C30.7437 31.876 34.7103 28.0424 39.4866 25.492C44.7136 22.7721 50.541 21.4065 56.4341 21.521L56.4683 21.5217L56.5025 21.5212C61.1251 21.4528 65.7128 22.3293 69.9836 24.0969C74.2545 25.8644 78.1181 28.4855 81.3372 31.7989L82.7293 33.2318L84.1637 31.8413L95.392 20.9574L96.76 19.6314L95.5019 18.2007C90.7792 12.8298 84.8326 8.67235 78.164 6.07876L78.1633 6.07846M73.9486 51.9085L78.1633 6.07846M78.1633 6.07846C70.9884 3.29134 63.344 1.90872 55.6465 2.00582M78.1633 6.07846L55.6465 2.00582M55.6465 2.00582C46.1007 1.86978 36.6721 4.12039 28.219 8.55315L55.6465 2.00582Z" fill="white" stroke="white" stroke-width="4"/>
<path d="M317.565 100V102H319.565H336H338V100V5V3H336H321.594H320.446L319.867 3.99156L284.812 64.03L249.125 3.97825L248.544 3H247.406H233H231V5V100V102H233H249.665H251.665V100V45.0356L278.925 90.1814L279.508 91.1476H280.637H288.593H289.73L290.312 90.1693L317.565 44.3099V100Z" fill="white" stroke="white" stroke-width="4"/>
<path d="M371.155 102H372.478L372.996 100.783L381.836 79.9983H426.652L435.749 100.801L436.273 102H437.581H456H459.096L457.823 99.1779L414.989 4.17793L414.458 3H413.166H395.834H394.542L394.011 4.17793L351.177 99.1779L349.904 102H353H371.155ZM389.515 62.0451L404.302 27.7046L419.089 62.0451H389.515Z" fill="white" stroke="white" stroke-width="4"/>
<path d="M532.272 49.9084H530.263L530.272 51.9171L530.396 80.4047C525.102 83.2104 519.199 84.6138 513.228 84.4797L513.188 84.4788L513.149 84.4795C507.428 84.5766 501.779 83.1599 496.75 80.3643L496.749 80.3632C492.068 77.7678 488.182 73.8898 485.532 69.159L485.531 69.157C482.777 64.2551 481.364 58.684 481.444 53.0283L481.444 52.9977L481.444 52.9672C481.349 47.2159 482.762 41.5455 485.532 36.5429C488.184 31.8575 492.063 28.0284 496.727 25.4832C501.833 22.7682 507.522 21.4065 513.273 21.5206L513.308 21.5213L513.343 21.5208C517.854 21.4508 522.333 22.324 526.503 24.0878C530.673 25.8517 534.449 28.4696 537.595 31.7824L539.004 33.2655L540.455 31.8238L551.41 20.9398L552.733 19.6245L551.513 18.2129C546.881 12.8559 541.063 8.6977 534.538 6.08556L534.531 6.08277C527.502 3.29921 520.013 1.91488 512.472 2.00536C503.117 1.87485 493.88 4.12885 485.598 8.56083L485.593 8.56338C477.787 12.7682 471.272 19.0858 466.762 26.8168L466.762 26.8168L466.757 26.8263C462.19 34.7539 459.856 43.8104 460.007 52.9995C459.85 62.19 462.185 71.2487 466.757 79.1749L466.759 79.1782C471.224 86.8846 477.677 93.1993 485.421 97.431L485.43 97.4362C493.647 101.869 502.826 104.124 512.124 103.995C519.029 104.016 525.894 102.923 532.464 100.756C538.792 98.7655 544.707 95.6111 549.919 91.4495L550.671 90.849V89.8866V51.9084V49.9084H548.671H532.272Z" fill="white" stroke="white" stroke-width="4"/>
<path d="M579 3H577V5V100V102H579H597H599V100V5V3H597H579Z" fill="white" stroke="white" stroke-width="4"/>
<path d="M644.686 97.4366L644.691 97.4391C652.891 101.843 662.058 104.098 671.349 103.996C678.893 104.085 686.378 102.65 693.363 99.7764L693.365 99.7755C699.962 97.052 705.835 92.81 710.514 87.3901L711.754 85.9535L710.384 84.6397L699.037 73.7555L697.52 72.3006L696.142 73.8876C693.193 77.284 689.547 79.9902 685.459 81.819C681.37 83.6479 676.936 84.5559 672.466 84.4804L672.431 84.4798L672.396 84.4804C666.669 84.5843 661.013 83.1877 655.979 80.4259L655.979 80.4259C651.282 77.849 647.394 73.9925 644.759 69.2931C641.994 64.3361 640.587 58.724 640.684 53.0344L640.685 53.0002L640.684 52.9659C640.587 47.2766 641.994 41.6648 644.759 36.708C647.394 32.0082 651.282 28.1514 655.979 25.5745L655.979 25.5744C661.013 22.8126 666.669 21.416 672.396 21.5199L672.432 21.5205L672.467 21.5199C676.928 21.4414 681.354 22.336 685.442 24.143C689.53 25.95 693.183 28.6272 696.153 31.9924L697.524 33.5463L699.028 32.121L710.376 21.369L711.757 20.0605L710.519 18.6158C705.898 13.2231 700.098 8.98331 693.576 6.23088L693.569 6.22802L693.563 6.2252C686.601 3.34764 679.136 1.91204 671.612 2.00417C662.299 1.89089 653.109 4.14595 644.89 8.56029C637.007 12.7744 630.421 19.0847 625.846 26.8043L625.842 26.8105L625.839 26.8168C621.216 34.7468 618.853 43.8079 619.007 53.003C618.879 62.1912 621.24 71.2416 625.836 79.1786L625.84 79.1854C630.345 86.8936 636.863 93.2078 644.686 97.4366Z" fill="white" stroke="white" stroke-width="4"/>
<path d="M143.564 34.5641C159.319 18.809 177.595 10.0193 190 9.88667C180.149 3.17362 168.264 0.109879 156.395 1.22415C144.527 2.33842 133.419 7.56081 124.99 15.9901C116.561 24.4193 111.338 35.5267 110.224 47.3953C109.11 59.2638 112.174 71.1491 118.887 81C119.019 68.6613 127.809 50.3854 143.564 34.5641Z" fill="white"/>
<path d="M143.564 34.5641C159.319 18.809 177.595 10.0193 190 9.88667C180.149 3.17362 168.264 0.109879 156.395 1.22415C144.527 2.33842 133.419 7.56081 124.99 15.9901C116.561 24.4193 111.338 35.5267 110.224 47.3953C109.11 59.2638 112.174 71.1491 118.887 81C119.019 68.6613 127.809 50.3854 143.564 34.5641Z" stroke="white"/>
<path d="M203.224 24C203.224 36.0862 194.414 54.1336 178.855 69.8555C163.297 85.5774 145.283 94.0934 133 94.2244C142.728 100.854 154.464 103.879 166.185 102.779C177.905 101.678 188.873 96.5212 197.197 88.1973C205.521 79.8734 210.678 68.9049 211.779 57.1847C212.879 45.4645 209.854 33.7278 203.224 24Z" fill="white"/>
<path d="M203.224 24C203.224 36.0862 194.414 54.1336 178.855 69.8555C163.297 85.5774 145.283 94.0934 133 94.2244C142.728 100.854 154.464 103.879 166.185 102.779C177.905 101.678 188.873 96.5212 197.197 88.1973C205.521 79.8734 210.678 68.9049 211.779 57.1847C212.879 45.4645 209.854 33.7278 203.224 24Z" stroke="white"/>
</svg>
