<svg width="32" height="32" viewBox="0 0 32 32" fill="none" xmlns="http://www.w3.org/2000/svg">
<g clip-path="url(#clip0_441_3085)">
<rect width="32" height="32" rx="16" fill="white"/>
<path d="M22.146 -4H9.876C-1.336 -4 -4 -1.334 -4 9.854V22.126C-4 33.334 -1.354 36 9.854 36H22.126C33.334 36 36 33.354 36 22.146V9.876C36 -1.336 33.354 -4 22.146 -4ZM28.292 24.54H25.374C24.27 24.54 23.938 23.646 21.958 21.666C20.23 20 19.5 19.792 19.062 19.792C18.458 19.792 18.292 19.958 18.292 20.792V23.416C18.292 24.126 18.062 24.542 16.208 24.542C14.409 24.4198 12.6647 23.8726 11.1182 22.9454C9.57176 22.0181 8.26731 20.7373 7.312 19.208C5.0447 16.389 3.46806 13.0789 2.708 9.542C2.708 9.104 2.874 8.708 3.708 8.708H6.626C7.376 8.708 7.646 9.042 7.938 9.812C9.354 13.98 11.77 17.604 12.75 17.604C13.126 17.604 13.29 17.438 13.29 16.5V12.208C13.166 10.25 12.126 10.084 12.126 9.376C12.1394 9.18926 12.2249 9.01507 12.3646 8.89036C12.5042 8.76565 12.6869 8.70024 12.874 8.708H17.458C18.084 8.708 18.292 9.02 18.292 9.77V15.562C18.292 16.188 18.562 16.396 18.75 16.396C19.126 16.396 19.416 16.188 20.104 15.5C21.5817 13.6979 22.789 11.6901 23.688 9.54C23.7805 9.28211 23.9544 9.06137 24.1836 8.91124C24.4128 8.7611 24.6846 8.68975 24.958 8.708H27.876C28.75 8.708 28.936 9.146 28.75 9.77C27.6891 12.1469 26.3762 14.4031 24.834 16.5C24.52 16.98 24.394 17.23 24.834 17.792C25.124 18.23 26.146 19.084 26.834 19.896C27.8334 20.8936 28.6636 22.0474 29.292 23.312C29.542 24.124 29.124 24.54 28.292 24.54Z" fill="#0077FF"/>
</g>
<defs>
<clipPath id="clip0_441_3085">
<rect width="32" height="32" rx="16" fill="white"/>
</clipPath>
</defs>
</svg>
