<svg width="32" height="32" viewBox="0 0 32 32" fill="none" xmlns="http://www.w3.org/2000/svg">
<g clip-path="url(#clip0_441_3080)">
<path d="M24.5 0H7.5C3.35786 0 0 3.35786 0 7.5V24.5C0 28.6421 3.35786 32 7.5 32H24.5C28.6421 32 32 28.6421 32 24.5V7.5C32 3.35786 28.6421 0 24.5 0Z" fill="white"/>
<path d="M24.5 0H7.5C3.35786 0 0 3.35786 0 7.5V24.5C0 28.6421 3.35786 32 7.5 32H24.5C28.6421 32 32 28.6421 32 24.5V7.5C32 3.35786 28.6421 0 24.5 0Z" fill="#1D9BF0"/>
<path d="M24.7477 11.481C24.7611 11.6763 24.7611 11.8716 24.7611 12.0687C24.7611 18.074 20.2208 25 11.9186 25V24.9963C9.46602 24.9999 7.06421 24.2926 5 22.9589C5.35681 23.002 5.71492 23.0239 6.07433 23.0245C8.10714 23.0262 10.0815 22.3397 11.6801 21.0753C10.7382 21.0573 9.82547 20.7434 9.06943 20.1776C8.3134 19.6117 7.75184 18.8222 7.46327 17.9192C8.13949 18.0506 8.83663 18.0238 9.50096 17.841C7.39531 17.4126 5.88037 15.5497 5.88037 13.3862V13.3286C6.50808 13.6807 7.21061 13.8757 7.92881 13.8974C5.94563 12.5627 5.33428 9.9061 6.53181 7.82897C7.6649 9.23312 9.0787 10.3815 10.6814 11.1996C12.284 12.0176 14.0397 12.4869 15.8343 12.5771C15.6553 11.8016 15.6818 10.9924 15.9109 10.2304C16.14 9.46838 16.5639 8.7803 17.14 8.23497C18.9579 6.51425 21.817 6.60249 23.526 8.432C24.5367 8.23107 25.5061 7.85795 26.3922 7.32871C26.0552 8.38101 25.3501 9.27424 24.408 9.84222C25.3028 9.73598 26.1765 9.49482 27 9.12684C26.3943 10.0403 25.6316 10.8374 24.7477 11.481Z" fill="white"/>
</g>
<defs>
<clipPath id="clip0_441_3080">
<rect width="32" height="32" rx="16" fill="white"/>
</clipPath>
</defs>
</svg>
