<svg width="32" height="32" viewBox="0 0 32 32" fill="none" xmlns="http://www.w3.org/2000/svg">
<g clip-path="url(#clip0_441_3087)">
<path d="M31.2938 5.01102C31.1103 4.04247 30.7522 3.15947 30.2553 2.44996C29.7584 1.74045 29.1401 1.22917 28.4618 0.967041C25.9785 0 15.984 0 15.984 0C15.984 0 5.98912 0.0292718 3.50583 0.996313C2.82751 1.25846 2.20912 1.76976 1.71223 2.47931C1.21535 3.18885 0.857316 4.07189 0.673785 5.04047C-0.0773522 11.3407 -0.368732 20.9408 0.694411 26.989C0.87796 27.9575 1.236 28.8405 1.73288 29.55C2.22977 30.2596 2.84815 30.7708 3.52646 31.033C6.00975 32 16.0044 32 16.0044 32C16.0044 32 25.999 32 28.4821 31.033C29.1605 30.7709 29.7789 30.2596 30.2758 29.5501C30.7727 28.8406 31.1307 27.9576 31.3143 26.989C32.1066 20.6798 32.3507 11.0856 31.2938 5.01102Z" fill="#FF0000"/>
<path d="M12 23L24 16L12 9V23Z" fill="white"/>
</g>
<defs>
<clipPath id="clip0_441_3087">
<rect width="32" height="32" rx="16" fill="white"/>
</clipPath>
</defs>
</svg>
