<svg width="32" height="32" viewBox="0 0 32 32" fill="none" xmlns="http://www.w3.org/2000/svg">
<g clip-path="url(#clip0_441_3090)">
<path d="M32 16.0978C32 7.20728 24.8365 0 16 0C7.1635 0 0 7.20728 0 16.0978C0 24.1326 5.851 30.7924 13.5 32V20.751H9.4375V16.0978H13.5V12.5512C13.5 8.51673 15.8888 6.2882 19.5435 6.2882C21.294 6.2882 23.125 6.60261 23.125 6.60261V10.5642H21.1075C19.1199 10.5642 18.5 11.8051 18.5 13.0782V16.0978H22.9375L22.2281 20.751H18.5V32C26.149 30.7924 32 24.1327 32 16.0978Z" fill="#1877F2"/>
<path d="M22.0826 20.5146L22.8082 15.8447H18.2694V12.8143C18.2694 11.5365 18.9034 10.2913 20.9364 10.2913H23V6.31553C23 6.31553 21.1272 6 19.3366 6C15.5985 6 13.1553 8.23651 13.1553 12.2854V15.8447H9V20.5146H13.1553V31.8037C14.0012 31.9346 14.8561 32.0002 15.7123 32C16.5686 32.0002 17.4235 31.9346 18.2694 31.8037V20.5146H22.0826Z" fill="white"/>
</g>
<defs>
<clipPath id="clip0_441_3090">
<rect width="32" height="32" rx="16" fill="white"/>
</clipPath>
</defs>
</svg>
