<svg width="32" height="32" viewBox="0 0 32 32" fill="none" xmlns="http://www.w3.org/2000/svg">
<g clip-path="url(#clip0_441_3103)">
<path d="M24.5 0H7.5C3.35786 0 0 3.35786 0 7.5V24.5C0 28.6421 3.35786 32 7.5 32H24.5C28.6421 32 32 28.6421 32 24.5V7.5C32 3.35786 28.6421 0 24.5 0Z" fill="#5865F2"/>
<mask id="mask0_441_3103" style="mask-type:luminance" maskUnits="userSpaceOnUse" x="6" y="8" width="21" height="16">
<path d="M6 8H27V24H6V8Z" fill="white"/>
</mask>
<g mask="url(#mask0_441_3103)">
<path d="M23.7773 9.32635C22.4158 8.70172 20.979 8.25624 19.5029 8.00106C19.4895 7.99861 19.4756 8.00043 19.4633 8.00627C19.451 8.01211 19.4408 8.02167 19.4342 8.0336C19.2496 8.36169 19.0451 8.78992 18.9019 9.12641C17.2878 8.8848 15.682 8.8848 14.101 9.12641C13.9578 8.78236 13.7459 8.36169 13.5605 8.0336C13.5536 8.02186 13.5434 8.01247 13.5311 8.00666C13.5189 8.00085 13.5051 7.9989 13.4917 8.00106C12.0154 8.25566 10.5785 8.70117 9.21725 9.32635C9.20566 9.3314 9.19585 9.33981 9.18911 9.35049C6.46666 13.4161 5.72095 17.3818 6.08677 21.2984C6.089 21.3178 6.09882 21.3354 6.11407 21.3475C7.91021 22.6661 9.65017 23.4666 11.3578 23.9972C11.3711 24.0011 11.3852 24.0009 11.3984 23.9966C11.4116 23.9923 11.4231 23.9841 11.4315 23.973C11.8354 23.4216 12.1955 22.8402 12.5043 22.2289C12.5085 22.2205 12.511 22.2113 12.5114 22.2019C12.5119 22.1925 12.5103 22.1832 12.5069 22.1744C12.5034 22.1657 12.4982 22.1578 12.4914 22.1512C12.4847 22.1447 12.4767 22.1396 12.4678 22.1364C11.8966 21.9198 11.3528 21.6558 10.8297 21.3559C10.8202 21.3503 10.8122 21.3425 10.8064 21.333C10.8007 21.3236 10.7973 21.3129 10.7967 21.3019C10.796 21.2908 10.7981 21.2798 10.8027 21.2698C10.8073 21.2597 10.8143 21.251 10.8231 21.2443C10.9335 21.1618 11.0419 21.0768 11.1484 20.9894C11.1577 20.9817 11.169 20.9768 11.181 20.9752C11.193 20.9735 11.2052 20.9753 11.2162 20.9802C14.6531 22.5487 18.3738 22.5487 21.77 20.9802C21.7811 20.975 21.7935 20.973 21.8056 20.9745C21.8178 20.976 21.8293 20.9808 21.8388 20.9886C21.9454 21.0765 22.0541 21.1617 22.1649 21.2443C22.1738 21.2509 22.1808 21.2596 22.1855 21.2696C22.1902 21.2796 22.1924 21.2906 22.1918 21.3016C22.1912 21.3127 22.188 21.3234 22.1823 21.3329C22.1766 21.3423 22.1686 21.3502 22.1592 21.3559C21.6358 21.6614 21.0875 21.9222 20.5202 22.1356C20.5114 22.1389 20.5034 22.1441 20.4968 22.1508C20.4902 22.1575 20.485 22.1655 20.4816 22.1743C20.4783 22.1831 20.4768 22.1925 20.4773 22.2019C20.4778 22.2113 20.4803 22.2205 20.4846 22.2289C20.7988 22.8354 21.157 23.4181 21.5565 23.9722C21.5646 23.9835 21.5761 23.992 21.5893 23.9964C21.6025 24.0009 21.6168 24.0012 21.6302 23.9972C23.3461 23.4666 25.086 22.6661 26.8823 21.3475C26.89 21.3418 26.8964 21.3346 26.9011 21.3263C26.9058 21.318 26.9087 21.3088 26.9096 21.2993C27.3474 16.7713 26.1762 12.838 23.8046 9.35133C23.7989 9.33997 23.7892 9.33109 23.7773 9.32635ZM13.0175 18.9137C11.9827 18.9137 11.1301 17.9641 11.1301 16.7979C11.1301 15.6318 11.9663 14.6822 13.0175 14.6822C14.077 14.6822 14.9213 15.6402 14.9047 16.7979C14.9047 17.9641 14.0687 18.9137 13.0175 18.9137ZM19.9954 18.9137C18.9606 18.9137 18.1081 17.9641 18.1081 16.7979C18.1081 15.6318 18.9442 14.6822 19.9954 14.6822C21.0549 14.6822 21.8992 15.6402 21.8827 16.7979C21.8827 17.9641 21.0549 18.9137 19.9954 18.9137Z" fill="white"/>
</g>
</g>
<defs>
<clipPath id="clip0_441_3103">
<rect width="32" height="32" rx="16" fill="white"/>
</clipPath>
</defs>
</svg>
