<svg width="32" height="32" viewBox="0 0 32 32" fill="none" xmlns="http://www.w3.org/2000/svg">
<g clip-path="url(#clip0_441_3100)">
<rect width="32" height="32" rx="16" fill="white"/>
<path d="M16 0C11.7575 0 7.685 1.68675 4.6875 4.68625C1.68693 7.68696 0.000858621 11.7565 0 16C0 20.2417 1.6875 24.3142 4.6875 27.3137C7.685 30.3132 11.7575 32 16 32C20.2425 32 24.315 30.3132 27.3125 27.3137C30.3125 24.3142 32 20.2417 32 16C32 11.7583 30.3125 7.68575 27.3125 4.68625C24.315 1.68675 20.2425 0 16 0Z" fill="url(#paint0_linear_441_3100)"/>
<path d="M7.16849 16.027C11.7328 14.0514 14.7756 12.749 16.297 12.1196C20.646 10.3227 21.5486 10.0107 22.1381 10.0001C22.2677 9.99803 22.5564 10.0299 22.7447 10.1812C22.9013 10.3088 22.9453 10.4813 22.9673 10.6025C22.9869 10.7235 23.0138 10.9994 22.9918 11.2148C22.7569 13.6745 21.737 19.6434 21.2184 22.3984C21.0007 23.5641 20.5678 23.9549 20.1495 23.9931C19.2396 24.0762 18.5498 23.3961 17.6692 22.8228C16.2921 21.9252 15.5143 21.3666 14.1763 20.4909C12.6304 19.4788 13.6333 18.9225 14.5139 18.0135C14.7438 17.7755 18.7504 14.1552 18.8262 13.8269C18.836 13.7858 18.8458 13.6327 18.7528 13.552C18.6623 13.471 18.5278 13.4987 18.4299 13.5206C18.2905 13.5517 16.0916 14.9974 11.8257 17.8574C11.202 18.2837 10.6369 18.4915 10.1282 18.4806C9.57048 18.4687 8.49423 18.1666 7.69438 17.9085C6.71598 17.5918 5.9357 17.4243 6.00419 16.8864C6.03843 16.6064 6.42735 16.3199 7.16849 16.027Z" fill="white"/>
</g>
<defs>
<linearGradient id="paint0_linear_441_3100" x1="1600" y1="0" x2="1600" y2="3200" gradientUnits="userSpaceOnUse">
<stop stop-color="#2AABEE"/>
<stop offset="1" stop-color="#229ED9"/>
</linearGradient>
<clipPath id="clip0_441_3100">
<rect width="32" height="32" rx="16" fill="white"/>
</clipPath>
</defs>
</svg>
