<svg width="32" height="32" viewBox="0 0 32 32" fill="none" xmlns="http://www.w3.org/2000/svg">
<g clip-path="url(#clip0_441_3097)">
<rect width="32" height="32" rx="16" fill="white"/>
<path d="M31.418 -0.999867H1.58197C0.905008 -1.00676 0.252962 -0.744816 -0.231093 -0.27152C-0.715149 0.201775 -0.991677 0.847765 -1 1.5247V31.481C-0.990172 32.157 -0.712982 32.8015 -0.229091 33.2736C0.254801 33.7456 0.905988 34.0068 1.58197 33.9999H31.418C32.095 34.0052 32.7466 33.7424 33.2304 33.2688C33.7143 32.7952 33.9909 32.1494 34 31.4724V1.5161C33.9879 0.841143 33.7099 0.198233 33.2265 -0.272889C32.743 -0.744012 32.0931 -1.00527 31.418 -0.999867Z" fill="#0076B2"/>
<path d="M8.26368 12.3168H11.5798V23H8.26368V12.3168ZM9.92264 7C10.303 7 10.6748 7.11295 10.991 7.32456C11.3072 7.53617 11.5536 7.83693 11.6991 8.1888C11.8446 8.54066 11.8825 8.92782 11.8082 9.3013C11.7339 9.67477 11.5506 10.0178 11.2815 10.2869C11.0124 10.5561 10.6697 10.7393 10.2966 10.8134C9.92353 10.8874 9.53689 10.849 9.18561 10.7031C8.83432 10.5571 8.53417 10.31 8.32313 9.99323C8.11209 9.67642 7.99964 9.30405 8 8.92323C8.00049 8.41299 8.20326 7.92381 8.56377 7.56319C8.92429 7.20257 9.41304 7 9.92264 7ZM13.6599 12.3168H16.8386V13.7835H16.8826C17.3257 12.9439 18.406 12.0583 20.0192 12.0583C23.3774 12.051 24 14.2639 24 17.1332V23H20.6839V17.8023C20.6839 16.5648 20.6619 14.9716 18.9609 14.9716C17.2598 14.9716 16.9705 16.321 16.9705 17.7217V23H13.6599V12.3168Z" fill="white"/>
</g>
<defs>
<clipPath id="clip0_441_3097">
<rect width="32" height="32" rx="16" fill="white"/>
</clipPath>
</defs>
</svg>
