<svg width="32" height="32" viewBox="0 0 32 32" fill="none" xmlns="http://www.w3.org/2000/svg">
<rect width="32" height="32" rx="16" fill="white"/>
<path d="M20.4194 12.684C21.7104 13.5009 23.2919 13.9816 25 13.9816V11.072C24.6767 11.0721 24.3543 11.0422 24.038 10.9828V13.2731C22.3301 13.2731 20.7488 12.7925 19.4575 11.9756V17.9134C19.4575 20.8838 16.7374 23.2916 13.3822 23.2916C12.1302 23.2916 10.9666 22.9566 10 22.3819C11.1032 23.3805 12.6418 24 14.3439 24C17.6993 24 20.4196 21.5922 20.4196 18.6217V12.684H20.4194ZM21.6062 9.74851C20.9464 9.11045 20.5131 8.28586 20.4194 7.37422V7H19.5078C19.7373 8.15865 20.5201 9.14852 21.6062 9.74851ZM12.1222 20.1026C11.7535 19.6748 11.5543 19.1513 11.5552 18.6132C11.5552 17.2547 12.7994 16.1531 14.3344 16.1531C14.6204 16.153 14.9047 16.1919 15.1774 16.2684V13.2937C14.8588 13.2551 14.5372 13.2386 14.2158 13.2447V15.56C13.9431 15.4834 13.6586 15.4446 13.3724 15.4448C11.8375 15.4448 10.5934 16.5462 10.5934 17.9049C10.5934 18.8656 11.2152 19.6974 12.1222 20.1026Z" fill="#FF004F"/>
<path d="M19.3526 12.1919C20.6627 13.0443 22.267 13.5458 24 13.5458V11.1559C23.0327 10.9683 22.1764 10.5081 21.5325 9.868C20.4305 9.24187 19.6364 8.20896 19.4036 7H16.9742V19.1268C16.9687 20.5406 15.7085 21.6853 14.1544 21.6853C13.2387 21.6853 12.4251 21.2879 11.9099 20.6721C10.9898 20.2494 10.3588 19.3814 10.3588 18.379C10.3588 16.9614 11.6211 15.812 13.1784 15.812C13.4768 15.812 13.7644 15.8543 14.0342 15.9322V13.5162C10.6897 13.5791 8 16.067 8 19.1269C8 20.6543 8.66978 22.039 9.75689 23.0508C10.7376 23.6503 11.9182 24 13.1885 24C16.5928 24 19.3526 21.4874 19.3526 18.3879L19.3526 12.1919Z" fill="white"/>
<path d="M24 10.6647V10.049C23.1265 10.0501 22.2702 9.83821 21.529 9.43745C22.1851 10.0597 23.049 10.4888 24 10.6648M19.397 6.7043C19.3748 6.59422 19.3578 6.4834 19.3459 6.37212V6H15.9867V17.5565C15.9814 18.9036 14.7194 19.9945 13.163 19.9945C12.7218 19.995 12.2867 19.9056 11.8927 19.7335C12.4086 20.3201 13.2234 20.6988 14.1404 20.6988C15.6966 20.6988 16.9587 19.608 16.9642 18.2608V6.70437L19.397 6.7043ZM14.0202 12.914V12.2584C13.7395 12.2252 13.4565 12.2086 13.1732 12.2087C9.76375 12.2087 7 14.603 7 17.5565C7 19.4082 8.08619 21.0401 9.73678 22C8.64814 21.0359 7.97741 19.7163 7.97741 18.2607C7.97741 15.3449 10.6709 12.9739 14.0202 12.914Z" fill="#00F2EA"/>
</svg>
